<svg xmlns="http://www.w3.org/2000/svg" xmlns:xlink="http://www.w3.org/1999/xlink" version="1.1" width="256" height="256" viewBox="0 0 256 256" xml:space="preserve">

<defs>
</defs>
<g style="stroke: none; stroke-width: 0; stroke-dasharray: none; stroke-linecap: butt; stroke-linejoin: miter; stroke-miterlimit: 10; fill: none; fill-rule: nonzero; opacity: 1;" transform="translate(1.4065934065934016 1.4065934065934016) scale(2.81 2.81)" >
	<path d="M 41.147 70.874 C 27.872 69.709 17.473 58.344 17.473 45 c 0 -13.344 10.399 -24.71 23.674 -25.874 c 1.881 -0.165 3.3 -1.706 3.3 -3.585 V 12.13 c 0 -1.693 -1.184 -3.171 -2.814 -3.513 c -2.78 -0.583 -5.003 -2.45 -6.099 -5.121 c -0.316 -0.77 -0.917 -1.372 -1.692 -1.694 c -0.793 -0.331 -1.665 -0.332 -2.46 -0.002 L 21.432 5.92 c -0.793 0.329 -1.411 0.947 -1.738 1.74 c -0.32 0.776 -0.32 1.627 0 2.395 c 1.366 3.266 0.66 6.848 -1.842 9.35 c -2.501 2.5 -6.083 3.207 -9.35 1.843 c -0.767 -0.321 -1.618 -0.322 -2.394 -0.002 c -0.793 0.327 -1.412 0.944 -1.741 1.737 l -4.122 9.951 c -0.329 0.793 -0.329 1.666 0.001 2.458 c 0.323 0.775 0.925 1.377 1.695 1.693 c 3.275 1.344 5.31 4.376 5.31 7.914 c 0 3.537 -2.035 6.57 -5.31 7.914 c -0.77 0.316 -1.372 0.918 -1.695 1.694 c -0.33 0.792 -0.33 1.664 -0.001 2.457 l 4.122 9.951 c 0.329 0.793 0.947 1.41 1.74 1.737 c 0.776 0.319 1.627 0.319 2.395 -0.002 c 3.265 -1.367 6.849 -0.66 9.351 1.843 c 2.501 2.501 3.206 6.084 1.841 9.349 c -0.321 0.769 -0.322 1.62 -0.001 2.396 c 0.327 0.793 0.944 1.411 1.737 1.739 l 9.951 4.122 c 0.396 0.164 0.812 0.246 1.228 0.246 c 0.417 0 0.834 -0.083 1.231 -0.248 c 0.776 -0.322 1.377 -0.925 1.693 -1.694 c 1.096 -2.672 3.32 -4.539 6.1 -5.122 c 1.631 -0.342 2.815 -1.819 2.815 -3.514 v -3.41 C 44.447 72.58 43.028 71.039 41.147 70.874 z M 42.447 77.87 c 0 0.753 -0.515 1.407 -1.225 1.557 c -3.44 0.721 -6.189 3.024 -7.541 6.319 c -0.113 0.275 -0.33 0.491 -0.611 0.607 c -0.297 0.124 -0.626 0.124 -0.924 0.001 l -9.951 -4.122 c -0.298 -0.124 -0.53 -0.355 -0.653 -0.654 c -0.116 -0.281 -0.117 -0.588 -0.002 -0.862 c 1.685 -4.029 0.814 -8.449 -2.272 -11.536 c -2.046 -2.046 -4.678 -3.118 -7.394 -3.118 c -1.381 0 -2.784 0.277 -4.142 0.845 c -0.273 0.116 -0.581 0.114 -0.862 -0.002 c -0.298 -0.123 -0.531 -0.354 -0.654 -0.653 L 2.093 56.3 c -0.124 -0.299 -0.124 -0.627 0 -0.924 c 0.117 -0.282 0.333 -0.499 0.607 -0.612 c 4.04 -1.657 6.551 -5.398 6.551 -9.763 c 0 -4.365 -2.51 -8.107 -6.55 -9.764 c -0.275 -0.113 -0.491 -0.33 -0.608 -0.611 c -0.124 -0.298 -0.124 -0.626 0 -0.925 l 4.122 -9.951 c 0.124 -0.299 0.356 -0.531 0.655 -0.654 c 0.282 -0.116 0.587 -0.117 0.861 -0.002 c 4.028 1.684 8.45 0.813 11.536 -2.274 c 3.086 -3.086 3.957 -7.507 2.273 -11.536 c -0.115 -0.273 -0.114 -0.58 0.002 -0.861 c 0.123 -0.299 0.355 -0.531 0.655 -0.655 l 9.949 -4.121 c 0.3 -0.124 0.629 -0.124 0.927 0 c 0.281 0.117 0.498 0.333 0.61 0.607 c 1.352 3.294 4.1 5.598 7.539 6.319 c 0.71 0.149 1.225 0.804 1.225 1.556 v 3.412 c 0 0.834 -0.634 1.519 -1.475 1.593 C 26.674 18.388 15.473 30.629 15.473 45 c 0 14.372 11.201 26.611 25.499 27.865 c 0.841 0.074 1.475 0.759 1.475 1.594 V 77.87 z" style="stroke: none; stroke-width: 1; stroke-dasharray: none; stroke-linecap: butt; stroke-linejoin: miter; stroke-miterlimit: 10; fill: rgb(0,0,0); fill-rule: nonzero; opacity: 1;" transform=" matrix(1 0 0 1 0 0) " stroke-linecap="round" />
	<path d="M 70.158 28.747 c -2.865 0 -5.196 2.331 -5.196 5.196 v 1.561 c 0 1.762 -1.434 3.196 -3.196 3.196 H 40.816 c -0.552 0 -1 0.448 -1 1 c 0 0.552 0.448 1 1 1 h 20.949 c 2.865 0 5.196 -2.331 5.196 -5.196 v -1.561 c 0 -1.762 1.434 -3.196 3.196 -3.196 h 7.453 c 0.481 2.965 3.052 5.239 6.15 5.239 c 3.439 0 6.238 -2.799 6.238 -6.239 c 0 -3.44 -2.799 -6.238 -6.238 -6.238 c -3.098 0 -5.669 2.273 -6.15 5.238 H 70.158 z M 83.761 25.509 c 2.337 0 4.238 1.901 4.238 4.238 c 0 2.337 -1.901 4.239 -4.238 4.239 s -4.238 -1.901 -4.238 -4.239 C 79.523 27.41 81.424 25.509 83.761 25.509 z" style="stroke: none; stroke-width: 1; stroke-dasharray: none; stroke-linecap: butt; stroke-linejoin: miter; stroke-miterlimit: 10; fill: rgb(0,0,0); fill-rule: nonzero; opacity: 1;" transform=" matrix(1 0 0 1 0 0) " stroke-linecap="round" />
	<path d="M 83.761 54.013 c -3.098 0 -5.669 2.274 -6.15 5.239 h -7.453 c -1.763 0 -3.196 -1.434 -3.196 -3.196 v -1.561 c 0 -2.865 -2.331 -5.196 -5.196 -5.196 H 40.816 c -0.552 0 -1 0.447 -1 1 s 0.448 1 1 1 h 20.949 c 1.763 0 3.196 1.434 3.196 3.196 v 1.561 c 0 2.865 2.331 5.196 5.196 5.196 h 7.453 c 0.481 2.965 3.052 5.238 6.15 5.238 c 3.439 0 6.238 -2.799 6.238 -6.238 C 89.999 56.812 87.2 54.013 83.761 54.013 z M 83.761 64.491 c -2.337 0 -4.238 -1.901 -4.238 -4.238 c 0 -2.338 1.901 -4.239 4.238 -4.239 s 4.238 1.901 4.238 4.239 C 87.999 62.589 86.098 64.491 83.761 64.491 z" style="stroke: none; stroke-width: 1; stroke-dasharray: none; stroke-linecap: butt; stroke-linejoin: miter; stroke-miterlimit: 10; fill: rgb(0,0,0); fill-rule: nonzero; opacity: 1;" transform=" matrix(1 0 0 1 0 0) " stroke-linecap="round" />
	<path d="M 70.303 69.509 c -3.098 0 -5.669 2.274 -6.15 5.239 h -6.929 c -1.763 0 -3.196 -1.434 -3.196 -3.196 v -5.658 c 0 -2.865 -2.331 -5.196 -5.196 -5.196 h -4.914 c -8.662 0 -15.758 -6.561 -16.152 -14.938 c -0.205 -4.343 1.33 -8.46 4.32 -11.595 c 2.993 -3.136 7.027 -4.864 11.36 -4.864 h 5.385 c 2.865 0 5.196 -2.331 5.196 -5.196 v -5.658 c 0 -1.762 1.434 -3.196 3.196 -3.196 h 6.929 c 0.481 2.965 3.052 5.239 6.15 5.239 c 3.439 0 6.238 -2.799 6.238 -6.239 s -2.799 -6.238 -6.238 -6.238 c -3.098 0 -5.669 2.273 -6.15 5.238 h -6.929 c -2.865 0 -5.196 2.331 -5.196 5.196 v 5.658 c 0 1.762 -1.434 3.196 -3.196 3.196 h -5.385 c -4.885 0 -9.433 1.947 -12.807 5.483 c -3.371 3.534 -5.101 8.176 -4.871 13.069 c 0.445 9.446 8.417 16.844 18.15 16.844 h 4.914 c 1.763 0 3.196 1.434 3.196 3.196 v 5.658 c 0 2.865 2.331 5.196 5.196 5.196 h 6.929 c 0.481 2.965 3.052 5.238 6.15 5.238 c 3.439 0 6.238 -2.799 6.238 -6.238 C 76.541 72.308 73.743 69.509 70.303 69.509 z M 70.303 10.013 c 2.337 0 4.238 1.901 4.238 4.238 c 0 2.337 -1.901 4.239 -4.238 4.239 s -4.238 -1.901 -4.238 -4.239 C 66.065 11.915 67.966 10.013 70.303 10.013 z M 70.303 79.987 c -2.337 0 -4.238 -1.901 -4.238 -4.238 c 0 -2.338 1.901 -4.239 4.238 -4.239 s 4.238 1.901 4.238 4.239 C 74.541 78.085 72.64 79.987 70.303 79.987 z" style="stroke: none; stroke-width: 1; stroke-dasharray: none; stroke-linecap: butt; stroke-linejoin: miter; stroke-miterlimit: 10; fill: rgb(0,0,0); fill-rule: nonzero; opacity: 1;" transform=" matrix(1 0 0 1 0 0) " stroke-linecap="round" />
</g>
</svg>