<svg width="851" height="251" viewBox="0 0 851 251" fill="none" xmlns="http://www.w3.org/2000/svg">
<path d="M816.774 198.099L827.243 177.553C834.603 163.107 832.436 145.628 821.701 133.479C812.775 123.377 803.584 113.054 798.961 108.079C765.723 79.1996 736.6 106.994 730.732 114.746C719.045 129.05 722.134 146.187 726.071 154.214C726.597 155.286 728.054 154.996 728.354 153.839C735.279 127.076 758.99 131.558 765.399 139.315L816.774 198.099Z" fill="#006BFF"/>
<path d="M683.588 112.799L673.12 133.345C665.759 147.79 667.926 165.269 678.662 177.419C687.587 187.52 696.778 197.843 701.402 202.818C734.639 231.698 763.762 203.903 769.63 196.152C781.318 181.848 778.228 164.71 774.291 156.684C773.765 155.611 772.308 155.901 772.009 157.058C765.084 183.821 741.372 179.339 734.963 171.583L683.588 112.799Z" fill="#57EBB9"/>
<path d="M29.8464 118V43.0171H0.489285V32.3752H71.3133V43.0171H41.9562V118H29.8464ZM84.6358 118V32.3752H118.029C125.532 32.3752 131.933 33.5576 137.234 35.9225C142.534 38.2873 146.612 41.7123 149.466 46.1975C152.32 50.6826 153.747 56.0239 153.747 62.2215C153.747 68.4191 152.32 73.7605 149.466 78.2456C146.612 82.6492 142.534 86.0334 137.234 88.3983C131.933 90.7631 125.532 91.9456 118.029 91.9456H91.3634L96.8679 86.3188V118H84.6358ZM141.882 118L120.109 86.9304H133.197L155.215 118H141.882ZM96.8679 87.542L91.3634 81.5483H117.662C125.491 81.5483 131.403 79.8766 135.399 76.5331C139.476 73.1081 141.515 68.3376 141.515 62.2215C141.515 56.1055 139.476 51.3757 135.399 48.0323C131.403 44.6888 125.491 43.0171 117.662 43.0171H91.3634L96.8679 36.901V87.542ZM173.51 118V32.3752H185.742V118H173.51ZM250.03 118.979C243.506 118.979 237.431 117.878 231.804 115.676C226.259 113.474 221.448 110.416 217.371 106.502C213.293 102.506 210.113 97.8578 207.829 92.5572C205.546 87.2566 204.404 81.4667 204.404 75.1876C204.404 68.9084 205.546 63.1186 207.829 57.818C210.113 52.5174 213.293 47.9099 217.371 43.9957C221.448 39.9998 226.259 36.901 231.804 34.6993C237.35 32.4975 243.425 31.3966 250.03 31.3966C256.554 31.3966 262.548 32.4975 268.011 34.6993C273.557 36.8195 278.368 39.8775 282.445 43.8733C286.604 47.7876 289.785 52.3951 291.986 57.6956C294.27 62.9962 295.411 68.8269 295.411 75.1876C295.411 81.5483 294.27 87.3789 291.986 92.6795C289.785 97.9801 286.604 102.628 282.445 106.624C278.368 110.538 273.557 113.596 268.011 115.798C262.548 117.918 256.554 118.979 250.03 118.979ZM250.03 108.092C254.76 108.092 259.123 107.277 263.119 105.646C267.196 104.015 270.703 101.731 273.638 98.7956C276.656 95.7783 278.98 92.2718 280.611 88.2759C282.323 84.2801 283.179 79.9173 283.179 75.1876C283.179 70.4578 282.323 66.095 280.611 62.0992C278.98 58.1034 276.656 54.6376 273.638 51.7019C270.703 48.6846 267.196 46.3605 263.119 44.7296C259.123 43.0986 254.76 42.2832 250.03 42.2832C245.219 42.2832 240.775 43.0986 236.697 44.7296C232.701 46.3605 229.195 48.6846 226.178 51.7019C223.16 54.6376 220.796 58.1034 219.083 62.0992C217.452 66.095 216.637 70.4578 216.637 75.1876C216.637 79.9173 217.452 84.2801 219.083 88.2759C220.796 92.2718 223.16 95.7783 226.178 98.7956C229.195 101.731 232.701 104.015 236.697 105.646C240.775 107.277 245.219 108.092 250.03 108.092ZM329.916 118V43.0171H300.558V32.3752H371.382V43.0171H342.025V118H329.916ZM395.836 69.3162H439.872V79.7135H395.836V69.3162ZM396.937 107.358H446.844V118H384.705V32.3752H445.132V43.0171H396.937V107.358ZM504.818 118.979C498.294 118.979 492.259 117.918 486.714 115.798C481.25 113.596 476.48 110.538 472.403 106.624C468.407 102.628 465.267 97.9801 462.984 92.6795C460.701 87.3789 459.559 81.5483 459.559 75.1876C459.559 68.8269 460.701 62.9962 462.984 57.6956C465.267 52.3951 468.448 47.7876 472.525 43.8733C476.602 39.8775 481.373 36.8195 486.836 34.6993C492.382 32.4975 498.416 31.3966 504.94 31.3966C511.545 31.3966 517.621 32.5383 523.166 34.8216C528.793 37.0234 533.563 40.326 537.477 44.7296L529.527 52.4358C526.265 49.0108 522.595 46.4829 518.518 44.8519C514.44 43.1394 510.078 42.2832 505.429 42.2832C500.618 42.2832 496.133 43.0986 491.974 44.7296C487.897 46.3605 484.349 48.6439 481.332 51.5796C478.315 54.5153 475.95 58.0218 474.237 62.0992C472.606 66.095 471.791 70.4578 471.791 75.1876C471.791 79.9173 472.606 84.3209 474.237 88.3983C475.95 92.3941 478.315 95.8599 481.332 98.7956C484.349 101.731 487.897 104.015 491.974 105.646C496.133 107.277 500.618 108.092 505.429 108.092C510.078 108.092 514.44 107.277 518.518 105.646C522.595 103.933 526.265 101.324 529.527 97.817L537.477 105.523C533.563 109.927 528.793 113.27 523.166 115.554C517.621 117.837 511.505 118.979 504.818 118.979ZM616.333 32.3752H628.565V118H616.333V32.3752ZM567.159 118H554.927V32.3752H567.159V118ZM617.433 79.8358H565.936V69.1938H617.433V79.8358Z" fill="black"/>
</svg>
