<svg width="201" height="191" viewBox="0 0 201 191" fill="none" xmlns="http://www.w3.org/2000/svg">
<path d="M166.774 138.099L177.243 117.553C184.603 103.107 182.436 85.6283 171.701 73.4787C162.775 63.3775 153.584 53.0541 148.961 48.0793C115.723 19.1996 86.6002 46.9945 80.7322 54.7459C69.045 69.0496 72.1341 86.1875 76.0709 94.2136C76.5973 95.2861 78.054 94.9961 78.3537 93.8393C85.2787 67.0763 108.99 71.5582 115.399 79.3146L166.774 138.099Z" fill="#006BFF"/>
<path d="M33.5884 52.7986L23.1197 73.3446C15.7592 87.7902 17.9262 105.269 28.6615 117.419C37.5872 127.52 46.7781 137.843 51.4017 142.818C84.6391 171.698 113.762 143.903 119.63 136.152C131.318 121.848 128.228 104.71 124.291 96.684C123.765 95.611 122.308 95.9015 122.009 97.0578C115.084 123.821 91.3724 119.339 84.9633 111.583L33.5884 52.7986Z" fill="#57EBB9"/>
</svg>
